<svg xmlns="http://www.w3.org/2000/svg" style="display:none">
<!-- TeknikCEP ikon seti · 93 sembol · 24x24 · stroke 1.7 · round cap/join
     Kullanım: <svg class="ic"><use href="teknikcep-icons.svg#tc-briefcase"/></svg>
     Renk currentColor ile gelir. Aktif durumda stroke-width 2.1 uygulanır.
     v2.0.0 · 2026-08-25 · Mikail Özkarcı -->
  <symbol id="tc-home" viewBox="0 0 24 24" fill="none" stroke="currentColor" stroke-width="1.7" stroke-linecap="round" stroke-linejoin="round"><path d="M3 10.6 12 3.4l9 7.2"></path><path d="M5.8 9.6V20.6h12.4V9.6"></path></symbol>
  <symbol id="tc-briefcase" viewBox="0 0 24 24" fill="none" stroke="currentColor" stroke-width="1.7" stroke-linecap="round" stroke-linejoin="round"><path d="M3.5 8.6h17v11.4h-17z"></path><path d="M9 8.6V6.2h6v2.4"></path><path d="M3.5 13.4h17"></path></symbol>
  <symbol id="tc-users" viewBox="0 0 24 24" fill="none" stroke="currentColor" stroke-width="1.7" stroke-linecap="round" stroke-linejoin="round"><path d="M9.4 11.4a3.5 3.5 0 1 0 0-7 3.5 3.5 0 0 0 0 7"></path><path d="M3.2 19.8c0-3.2 2.8-5.3 6.2-5.3s6.2 2.1 6.2 5.3"></path><path d="M16.6 5.2a3.3 3.3 0 0 1 0 6.4"></path><path d="M17.6 14.8c2.2.5 3.6 2.3 3.6 4.6"></path></symbol>
  <symbol id="tc-file" viewBox="0 0 24 24" fill="none" stroke="currentColor" stroke-width="1.7" stroke-linecap="round" stroke-linejoin="round"><path d="M6 3.5h7.6L18.2 8.2v12.3H6z"></path><path d="M13.6 3.5v4.7h4.6"></path><path d="M8.8 12.6h6.6"></path><path d="M8.8 16.2h4.4"></path></symbol>
  <symbol id="tc-grid" viewBox="0 0 24 24" fill="none" stroke="currentColor" stroke-width="1.7" stroke-linecap="round" stroke-linejoin="round"><path d="M4 4h6.2v6.2H4z"></path><path d="M13.8 4H20v6.2h-6.2z"></path><path d="M4 13.8h6.2V20H4z"></path><path d="M13.8 13.8H20V20h-6.2z"></path></symbol>
  <symbol id="tc-plus" viewBox="0 0 24 24" fill="none" stroke="currentColor" stroke-width="1.7" stroke-linecap="round" stroke-linejoin="round"><path d="M12 5v14"></path><path d="M5 12h14"></path></symbol>
  <symbol id="tc-minus" viewBox="0 0 24 24" fill="none" stroke="currentColor" stroke-width="1.7" stroke-linecap="round" stroke-linejoin="round"><path d="M5 12h14"></path></symbol>
  <symbol id="tc-search" viewBox="0 0 24 24" fill="none" stroke="currentColor" stroke-width="1.7" stroke-linecap="round" stroke-linejoin="round"><path d="M11 4.5a6.5 6.5 0 1 0 0 13 6.5 6.5 0 0 0 0-13"></path><path d="M15.8 15.8 20.2 20.2"></path></symbol>
  <symbol id="tc-filter" viewBox="0 0 24 24" fill="none" stroke="currentColor" stroke-width="1.7" stroke-linecap="round" stroke-linejoin="round"><path d="M4 6.5h16"></path><path d="M7 12h10"></path><path d="M10 17.5h4"></path></symbol>
  <symbol id="tc-calendar" viewBox="0 0 24 24" fill="none" stroke="currentColor" stroke-width="1.7" stroke-linecap="round" stroke-linejoin="round"><path d="M4.5 6.2h15v14.3h-15z"></path><path d="M4.5 10.4h15"></path><path d="M8.6 3.6v2.6"></path><path d="M15.4 3.6v2.6"></path><path d="M8.4 14.2h2.2"></path></symbol>
  <symbol id="tc-wallet" viewBox="0 0 24 24" fill="none" stroke="currentColor" stroke-width="1.7" stroke-linecap="round" stroke-linejoin="round"><path d="M4 7.6h13.6v11.2H4z"></path><path d="M4 7.6c0-1.3 1-2.1 2.2-2.1h11.4"></path><path d="M17.6 11.6H21v3.4h-3.4"></path></symbol>
  <symbol id="tc-box" viewBox="0 0 24 24" fill="none" stroke="currentColor" stroke-width="1.7" stroke-linecap="round" stroke-linejoin="round"><path d="M12 3.6 20.5 8.2v7.6L12 20.4 3.5 15.8V8.2z"></path><path d="M3.5 8.2 12 12.8l8.5-4.6"></path><path d="M12 12.8v7.6"></path></symbol>
  <symbol id="tc-barcode" viewBox="0 0 24 24" fill="none" stroke="currentColor" stroke-width="1.7" stroke-linecap="round" stroke-linejoin="round"><path d="M4 5.6v12.8"></path><path d="M7.2 5.6v12.8"></path><path d="M10.4 5.6v12.8"></path><path d="M13.6 5.6v12.8"></path><path d="M16.8 5.6v12.8"></path><path d="M20 5.6v12.8"></path></symbol>
  <symbol id="tc-bell" viewBox="0 0 24 24" fill="none" stroke="currentColor" stroke-width="1.7" stroke-linecap="round" stroke-linejoin="round"><path d="M6.6 10.2a5.4 5.4 0 0 1 10.8 0c0 3.9 1.6 5.4 1.6 5.4H5s1.6-1.5 1.6-5.4"></path><path d="M10 18.8a2.2 2.2 0 0 0 4 0"></path></symbol>
  <symbol id="tc-user" viewBox="0 0 24 24" fill="none" stroke="currentColor" stroke-width="1.7" stroke-linecap="round" stroke-linejoin="round"><path d="M12 12.2a4.1 4.1 0 1 0 0-8.2 4.1 4.1 0 0 0 0 8.2"></path><path d="M4.4 20.6c0-3.7 3.4-6.1 7.6-6.1s7.6 2.4 7.6 6.1"></path></symbol>
  <symbol id="tc-building" viewBox="0 0 24 24" fill="none" stroke="currentColor" stroke-width="1.7" stroke-linecap="round" stroke-linejoin="round"><path d="M5 20.5V4.4h9.2v16.1"></path><path d="M14.2 9.8H19v10.7"></path><path d="M8 8h3.2"></path><path d="M8 12h3.2"></path><path d="M8 16h3.2"></path><path d="M16.4 13.2h1"></path><path d="M16.4 16.6h1"></path></symbol>
  <symbol id="tc-settings" viewBox="0 0 24 24" fill="none" stroke="currentColor" stroke-width="1.7" stroke-linecap="round" stroke-linejoin="round"><path d="M12 15.1a3.1 3.1 0 1 0 0-6.2 3.1 3.1 0 0 0 0 6.2"></path><path d="M19.4 13.5a7.7 7.7 0 0 0 0-3l1.8-1.4-1.9-3.3-2.2.9a7.6 7.6 0 0 0-2.6-1.5L14.1 3H9.9l-.4 2.2a7.6 7.6 0 0 0-2.6 1.5l-2.2-.9-1.9 3.3 1.8 1.4a7.7 7.7 0 0 0 0 3l-1.8 1.4 1.9 3.3 2.2-.9a7.6 7.6 0 0 0 2.6 1.5l.4 2.2h4.2l.4-2.2a7.6 7.6 0 0 0 2.6-1.5l2.2.9 1.9-3.3z"></path></symbol>
  <symbol id="tc-sync" viewBox="0 0 24 24" fill="none" stroke="currentColor" stroke-width="1.7" stroke-linecap="round" stroke-linejoin="round"><path d="M4.4 12a7.6 7.6 0 0 1 13.1-5.3"></path><path d="M19.6 12a7.6 7.6 0 0 1-13.1 5.3"></path><path d="M17.5 3.2v3.5H14"></path><path d="M6.5 20.8v-3.5H10"></path></symbol>
  <symbol id="tc-cloudOff" viewBox="0 0 24 24" fill="none" stroke="currentColor" stroke-width="1.7" stroke-linecap="round" stroke-linejoin="round"><path d="M3.4 3.4 20.6 20.6"></path><path d="M7.6 8.2A5 5 0 0 0 7 18.2h9.6"></path><path d="M9.9 5.5A5.5 5.5 0 0 1 18 9.7a4.2 4.2 0 0 1 2.7 6.6"></path></symbol>
  <symbol id="tc-cloudOk" viewBox="0 0 24 24" fill="none" stroke="currentColor" stroke-width="1.7" stroke-linecap="round" stroke-linejoin="round"><path d="M7.4 18.4a4.7 4.7 0 0 1 .3-9.4 5.6 5.6 0 0 1 10.5 1.2 4.1 4.1 0 0 1-.7 8.2z"></path><path d="M9.6 13.6 11.6 15.7l3.6-3.9"></path></symbol>
  <symbol id="tc-check" viewBox="0 0 24 24" fill="none" stroke="currentColor" stroke-width="1.7" stroke-linecap="round" stroke-linejoin="round"><path d="M5 12.6 9.8 17.4 19 7.6"></path></symbol>
  <symbol id="tc-checkCircle" viewBox="0 0 24 24" fill="none" stroke="currentColor" stroke-width="1.7" stroke-linecap="round" stroke-linejoin="round"><path d="M12 3.6a8.4 8.4 0 1 0 0 16.8 8.4 8.4 0 0 0 0-16.8"></path><path d="M8.2 12.2 11 15l5-5.4"></path></symbol>
  <symbol id="tc-alert" viewBox="0 0 24 24" fill="none" stroke="currentColor" stroke-width="1.7" stroke-linecap="round" stroke-linejoin="round"><path d="M12 4.2 21 19.8H3z"></path><path d="M12 9.8v4.6"></path><path d="M12 17.2v.15"></path></symbol>
  <symbol id="tc-alertCircle" viewBox="0 0 24 24" fill="none" stroke="currentColor" stroke-width="1.7" stroke-linecap="round" stroke-linejoin="round"><path d="M12 3.6a8.4 8.4 0 1 0 0 16.8 8.4 8.4 0 0 0 0-16.8"></path><path d="M12 7.6v5"></path><path d="M12 16.2v.15"></path></symbol>
  <symbol id="tc-info" viewBox="0 0 24 24" fill="none" stroke="currentColor" stroke-width="1.7" stroke-linecap="round" stroke-linejoin="round"><path d="M12 3.6a8.4 8.4 0 1 0 0 16.8 8.4 8.4 0 0 0 0-16.8"></path><path d="M12 11v5.4"></path><path d="M12 7.6v.15"></path></symbol>
  <symbol id="tc-x" viewBox="0 0 24 24" fill="none" stroke="currentColor" stroke-width="1.7" stroke-linecap="round" stroke-linejoin="round"><path d="M6 6l12 12"></path><path d="M18 6 6 18"></path></symbol>
  <symbol id="tc-chevronRight" viewBox="0 0 24 24" fill="none" stroke="currentColor" stroke-width="1.7" stroke-linecap="round" stroke-linejoin="round"><path d="M9.6 5.4 16.2 12l-6.6 6.6"></path></symbol>
  <symbol id="tc-chevronLeft" viewBox="0 0 24 24" fill="none" stroke="currentColor" stroke-width="1.7" stroke-linecap="round" stroke-linejoin="round"><path d="M14.4 5.4 7.8 12l6.6 6.6"></path></symbol>
  <symbol id="tc-chevronDown" viewBox="0 0 24 24" fill="none" stroke="currentColor" stroke-width="1.7" stroke-linecap="round" stroke-linejoin="round"><path d="M5.6 9.4 12 15.8l6.4-6.4"></path></symbol>
  <symbol id="tc-arrowLeft" viewBox="0 0 24 24" fill="none" stroke="currentColor" stroke-width="1.7" stroke-linecap="round" stroke-linejoin="round"><path d="M19.2 12H5.2"></path><path d="M11 6l-6 6 6 6"></path></symbol>
  <symbol id="tc-arrowRight" viewBox="0 0 24 24" fill="none" stroke="currentColor" stroke-width="1.7" stroke-linecap="round" stroke-linejoin="round"><path d="M4.8 12h14"></path><path d="M13 6l6 6-6 6"></path></symbol>
  <symbol id="tc-phone" viewBox="0 0 24 24" fill="none" stroke="currentColor" stroke-width="1.7" stroke-linecap="round" stroke-linejoin="round"><path d="M8.4 4.4 10.7 9l-2.1 1.9a10.6 10.6 0 0 0 4.5 4.5l1.9-2.1 4.6 2.3v3.1c0 .9-.8 1.6-1.7 1.5C10.3 19.4 4.6 13.7 3.8 6.1 3.7 5.2 4.4 4.4 5.3 4.4z"></path></symbol>
  <symbol id="tc-pin" viewBox="0 0 24 24" fill="none" stroke="currentColor" stroke-width="1.7" stroke-linecap="round" stroke-linejoin="round"><path d="M12 21.2s6.6-6.2 6.6-11.2a6.6 6.6 0 1 0-13.2 0c0 5 6.6 11.2 6.6 11.2"></path><path d="M12 12.6a2.6 2.6 0 1 0 0-5.2 2.6 2.6 0 0 0 0 5.2"></path></symbol>
  <symbol id="tc-camera" viewBox="0 0 24 24" fill="none" stroke="currentColor" stroke-width="1.7" stroke-linecap="round" stroke-linejoin="round"><path d="M3.4 8.2h3.3L8.2 5.8h7.6l1.5 2.4h3.3v11.4h-17z"></path><path d="M12 17.2a3.7 3.7 0 1 0 0-7.4 3.7 3.7 0 0 0 0 7.4"></path></symbol>
  <symbol id="tc-pen" viewBox="0 0 24 24" fill="none" stroke="currentColor" stroke-width="1.7" stroke-linecap="round" stroke-linejoin="round"><path d="M4 20.2h4.2L18.4 10a2.6 2.6 0 0 0-3.6-3.6L4.5 16.5z"></path><path d="M14.6 7.4 17.4 10.2"></path></symbol>
  <symbol id="tc-signature" viewBox="0 0 24 24" fill="none" stroke="currentColor" stroke-width="1.7" stroke-linecap="round" stroke-linejoin="round"><path d="M3.4 16.6c3.1-6.8 5.1-9.8 6.7-9.8s1 6.7 2.6 6.7 2.5-3.1 4.1-3.1 1.5 2.1 4.1 2.1"></path><path d="M3.4 20.6h17.2"></path></symbol>
  <symbol id="tc-clock" viewBox="0 0 24 24" fill="none" stroke="currentColor" stroke-width="1.7" stroke-linecap="round" stroke-linejoin="round"><path d="M12 3.6a8.4 8.4 0 1 0 0 16.8 8.4 8.4 0 0 0 0-16.8"></path><path d="M12 7.4V12l3.1 2"></path></symbol>
  <symbol id="tc-trash" viewBox="0 0 24 24" fill="none" stroke="currentColor" stroke-width="1.7" stroke-linecap="round" stroke-linejoin="round"><path d="M4.4 7h15.2"></path><path d="M9 7V4.4h6V7"></path><path d="M6.5 7l1 13.2h9L17.5 7"></path></symbol>
  <symbol id="tc-edit" viewBox="0 0 24 24" fill="none" stroke="currentColor" stroke-width="1.7" stroke-linecap="round" stroke-linejoin="round"><path d="M12.8 5.4H5.4v13.4h13.4v-7.6"></path><path d="M17.2 3.4 20.6 6.8 12 15.4l-4.2.6.6-4.2z"></path></symbol>
  <symbol id="tc-download" viewBox="0 0 24 24" fill="none" stroke="currentColor" stroke-width="1.7" stroke-linecap="round" stroke-linejoin="round"><path d="M12 4v10.6"></path><path d="M7.4 10.4 12 15l4.6-4.6"></path><path d="M4.4 19.6h15.2"></path></symbol>
  <symbol id="tc-share" viewBox="0 0 24 24" fill="none" stroke="currentColor" stroke-width="1.7" stroke-linecap="round" stroke-linejoin="round"><path d="M12 3.4v12.2"></path><path d="M8 7.4 12 3.4l4 4"></path><path d="M5 13.4v6.8h14v-6.8"></path></symbol>
  <symbol id="tc-card" viewBox="0 0 24 24" fill="none" stroke="currentColor" stroke-width="1.7" stroke-linecap="round" stroke-linejoin="round"><path d="M3.4 6.4h17.2v11.2H3.4z"></path><path d="M3.4 10.4h17.2"></path><path d="M6.6 14.4h3.4"></path></symbol>
  <symbol id="tc-shield" viewBox="0 0 24 24" fill="none" stroke="currentColor" stroke-width="1.7" stroke-linecap="round" stroke-linejoin="round"><path d="M12 3.4 19.6 6v6.1c0 4.6-3.4 7.5-7.6 8.5-4.2-1-7.6-3.9-7.6-8.5V6z"></path><path d="M9 12.2l2.2 2.3 3.9-4.4"></path></symbol>
  <symbol id="tc-logout" viewBox="0 0 24 24" fill="none" stroke="currentColor" stroke-width="1.7" stroke-linecap="round" stroke-linejoin="round"><path d="M13.8 4.4H5.4v15.2h8.4"></path><path d="M10.8 12h9.4"></path><path d="M17 8.4l3.6 3.6-3.6 3.6"></path></symbol>
  <symbol id="tc-moreV" viewBox="0 0 24 24" fill="none" stroke="currentColor" stroke-width="1.7" stroke-linecap="round" stroke-linejoin="round"><path d="M12 6.1v.15"></path><path d="M12 12v.15"></path><path d="M12 17.9v.15"></path></symbol>
  <symbol id="tc-image" viewBox="0 0 24 24" fill="none" stroke="currentColor" stroke-width="1.7" stroke-linecap="round" stroke-linejoin="round"><path d="M4 5.4h16v13.2H4z"></path><path d="M4 15l4.6-4.6 4 4 3-2.6 4.4 4"></path><path d="M9 10.2a1.4 1.4 0 1 0 0-2.8 1.4 1.4 0 0 0 0 2.8"></path></symbol>
  <symbol id="tc-note" viewBox="0 0 24 24" fill="none" stroke="currentColor" stroke-width="1.7" stroke-linecap="round" stroke-linejoin="round"><path d="M5.4 3.8h13.2v16.4H5.4z"></path><path d="M9 9h6"></path><path d="M9 13h6"></path><path d="M9 17h3.4"></path></symbol>
  <symbol id="tc-trendUp" viewBox="0 0 24 24" fill="none" stroke="currentColor" stroke-width="1.7" stroke-linecap="round" stroke-linejoin="round"><path d="M4 16.6 10 10.6l3.6 3.6L20 7.8"></path><path d="M15.4 7.8H20v4.6"></path></symbol>
  <symbol id="tc-trendDown" viewBox="0 0 24 24" fill="none" stroke="currentColor" stroke-width="1.7" stroke-linecap="round" stroke-linejoin="round"><path d="M4 7.8 10 13.8l3.6-3.6L20 16.6"></path><path d="M15.4 16.6H20V12"></path></symbol>
  <symbol id="tc-scan" viewBox="0 0 24 24" fill="none" stroke="currentColor" stroke-width="1.7" stroke-linecap="round" stroke-linejoin="round"><path d="M4 8.6V5.6c0-.9.7-1.6 1.6-1.6h3"></path><path d="M20 8.6V5.6c0-.9-.7-1.6-1.6-1.6h-3"></path><path d="M4 15.4v3c0 .9.7 1.6 1.6 1.6h3"></path><path d="M20 15.4v3c0 .9-.7 1.6-1.6 1.6h-3"></path><path d="M3 12h18"></path></symbol>
  <symbol id="tc-tag" viewBox="0 0 24 24" fill="none" stroke="currentColor" stroke-width="1.7" stroke-linecap="round" stroke-linejoin="round"><path d="M4.4 4.4h6.8l9 9-6.8 6.8-9-9z"></path><path d="M8.2 8.2v.15"></path></symbol>
  <symbol id="tc-lock" viewBox="0 0 24 24" fill="none" stroke="currentColor" stroke-width="1.7" stroke-linecap="round" stroke-linejoin="round"><path d="M6.4 10.4h11.2v9.2H6.4z"></path><path d="M9 10.4V8a3 3 0 0 1 6 0v2.4"></path><path d="M12 14v2.2"></path></symbol>
  <symbol id="tc-mail" viewBox="0 0 24 24" fill="none" stroke="currentColor" stroke-width="1.7" stroke-linecap="round" stroke-linejoin="round"><path d="M3.4 6h17.2v12H3.4z"></path><path d="M3.4 6.8 12 13l8.6-6.2"></path></symbol>
  <symbol id="tc-eye" viewBox="0 0 24 24" fill="none" stroke="currentColor" stroke-width="1.7" stroke-linecap="round" stroke-linejoin="round"><path d="M2.8 12S6.4 5.9 12 5.9 21.2 12 21.2 12 17.6 18.1 12 18.1 2.8 12 2.8 12"></path><path d="M12 14.9a2.9 2.9 0 1 0 0-5.8 2.9 2.9 0 0 0 0 5.8"></path></symbol>
  <symbol id="tc-list" viewBox="0 0 24 24" fill="none" stroke="currentColor" stroke-width="1.7" stroke-linecap="round" stroke-linejoin="round"><path d="M4 6.4h16"></path><path d="M4 12h16"></path><path d="M4 17.6h16"></path></symbol>
  <symbol id="tc-flash" viewBox="0 0 24 24" fill="none" stroke="currentColor" stroke-width="1.7" stroke-linecap="round" stroke-linejoin="round"><path d="M13.6 3.4 5.4 13.6h5.6l-1 7 8.2-10.2h-5.6z"></path></symbol>
  <symbol id="tc-star" viewBox="0 0 24 24" fill="none" stroke="currentColor" stroke-width="1.7" stroke-linecap="round" stroke-linejoin="round"><path d="M12 3.8l2.6 5.3 5.8.8-4.2 4.1 1 5.8-5.2-2.7-5.2 2.7 1-5.8-4.2-4.1 5.8-.8z"></path></symbol>
  <symbol id="tc-printer" viewBox="0 0 24 24" fill="none" stroke="currentColor" stroke-width="1.7" stroke-linecap="round" stroke-linejoin="round"><path d="M7 9.2V4.4h10v4.8"></path><path d="M4.4 9.2h15.2v7.2h-3v4.2H7.4v-4.2h-3z"></path><path d="M7.4 16.4h9.2"></path></symbol>
  <symbol id="tc-key" viewBox="0 0 24 24" fill="none" stroke="currentColor" stroke-width="1.7" stroke-linecap="round" stroke-linejoin="round"><path d="M14.6 4.4a5.1 5.1 0 1 0-3.7 8.7L4 20v-3.6h3.6v-3.5h3.3a5.1 5.1 0 0 0 3.7-8.5"></path><path d="M16.2 8v.15"></path></symbol>
  <symbol id="tc-upload" viewBox="0 0 24 24" fill="none" stroke="currentColor" stroke-width="1.7" stroke-linecap="round" stroke-linejoin="round"><path d="M12 20V9.4"></path><path d="M7.4 14 12 9.4l4.6 4.6"></path><path d="M4.4 4.4h15.2"></path></symbol>
  <symbol id="tc-folder" viewBox="0 0 24 24" fill="none" stroke="currentColor" stroke-width="1.7" stroke-linecap="round" stroke-linejoin="round"><path d="M3.4 6.4h6.2l2.2 2.8h8.8v11.4H3.4z"></path></symbol>
  <symbol id="tc-chart" viewBox="0 0 24 24" fill="none" stroke="currentColor" stroke-width="1.7" stroke-linecap="round" stroke-linejoin="round"><path d="M4.4 20V4.4"></path><path d="M4.4 20h15.2"></path><path d="M8 17v-5.2"></path><path d="M12.4 17V8"></path><path d="M16.8 17v-6.4"></path></symbol>
  <symbol id="tc-sun" viewBox="0 0 24 24" fill="none" stroke="currentColor" stroke-width="1.7" stroke-linecap="round" stroke-linejoin="round"><path d="M12 16.1a4.1 4.1 0 1 0 0-8.2 4.1 4.1 0 0 0 0 8.2"></path><path d="M12 2.6V4.2"></path><path d="M12 19.8v1.6"></path><path d="M4.9 4.9 6.1 6.1"></path><path d="M17.9 17.9l1.2 1.2"></path><path d="M2.6 12h1.6"></path><path d="M19.8 12h1.6"></path><path d="M4.9 19.1 6.1 17.9"></path><path d="M17.9 6.1 19.1 4.9"></path></symbol>
  <symbol id="tc-moon" viewBox="0 0 24 24" fill="none" stroke="currentColor" stroke-width="1.7" stroke-linecap="round" stroke-linejoin="round"><path d="M20.2 14.6A8.6 8.6 0 0 1 9.4 3.8a8.6 8.6 0 1 0 10.8 10.8"></path></symbol>
  <symbol id="tc-layers" viewBox="0 0 24 24" fill="none" stroke="currentColor" stroke-width="1.7" stroke-linecap="round" stroke-linejoin="round"><path d="M12 3.4 20.6 7.8 12 12.2 3.4 7.8z"></path><path d="M3.4 12.2 12 16.6l8.6-4.4"></path><path d="M3.4 16.6 12 21l8.6-4.4"></path></symbol>
  <symbol id="tc-percent" viewBox="0 0 24 24" fill="none" stroke="currentColor" stroke-width="1.7" stroke-linecap="round" stroke-linejoin="round"><path d="M6.2 6.2l11.6 11.6"></path><path d="M7.6 9.6a2.6 2.6 0 1 0 0-5.2 2.6 2.6 0 0 0 0 5.2"></path><path d="M16.4 19.6a2.6 2.6 0 1 0 0-5.2 2.6 2.6 0 0 0 0 5.2"></path></symbol>
  <symbol id="tc-wrench" viewBox="0 0 24 24" fill="none" stroke="currentColor" stroke-width="1.7" stroke-linecap="round" stroke-linejoin="round"><path d="M20.2 5.4a5.1 5.1 0 0 1-6.8 6.8L5.8 19.8 4.2 18.2l7.6-7.6a5.1 5.1 0 0 1 6.8-6.8l-3 3 2.6 2.6z"></path></symbol>
  <symbol id="tc-wifi" viewBox="0 0 24 24" fill="none" stroke="currentColor" stroke-width="1.7" stroke-linecap="round" stroke-linejoin="round"><path d="M4 9.4a12 12 0 0 1 16 0"></path><path d="M7.2 13a7.4 7.4 0 0 1 9.6 0"></path><path d="M10.2 16.4a3.1 3.1 0 0 1 3.6 0"></path><path d="M12 19.8v.15"></path></symbol>
  <symbol id="tc-refresh" viewBox="0 0 24 24" fill="none" stroke="currentColor" stroke-width="1.7" stroke-linecap="round" stroke-linejoin="round"><path d="M4.4 12a7.6 7.6 0 0 1 13.1-5.3"></path><path d="M19.6 12a7.6 7.6 0 0 1-13.1 5.3"></path><path d="M17.5 3.2v3.5H14"></path><path d="M6.5 20.8v-3.5H10"></path></symbol>
  <symbol id="tc-copy" viewBox="0 0 24 24" fill="none" stroke="currentColor" stroke-width="1.7" stroke-linecap="round" stroke-linejoin="round"><path d="M8.4 8.4h11.2v11.2H8.4z"></path><path d="M15.6 8.4V4.4H4.4v11.2h4"></path></symbol>
  <symbol id="tc-swap" viewBox="0 0 24 24" fill="none" stroke="currentColor" stroke-width="1.7" stroke-linecap="round" stroke-linejoin="round"><path d="M4.4 8.4h13"></path><path d="M14 5l3.4 3.4L14 11.8"></path><path d="M19.6 15.6h-13"></path><path d="M10 12.2 6.6 15.6 10 19"></path></symbol>
  <symbol id="tc-send" viewBox="0 0 24 24" fill="none" stroke="currentColor" stroke-width="1.7" stroke-linecap="round" stroke-linejoin="round"><path d="M20.8 3.2 3.6 9.4l7.4 3.6 3.6 7.4z"></path><path d="M20.8 3.2 11 13"></path></symbol>
  <symbol id="tc-arrowUp" viewBox="0 0 24 24" fill="none" stroke="currentColor" stroke-width="1.7" stroke-linecap="round" stroke-linejoin="round"><path d="M12 19.6V4.6"></path><path d="M6 10.6 12 4.6l6 6"></path></symbol>
  <symbol id="tc-arrowDown" viewBox="0 0 24 24" fill="none" stroke="currentColor" stroke-width="1.7" stroke-linecap="round" stroke-linejoin="round"><path d="M12 4.4v15"></path><path d="M6 13.4 12 19.4l6-6"></path></symbol>
  <symbol id="tc-chevronUp" viewBox="0 0 24 24" fill="none" stroke="currentColor" stroke-width="1.7" stroke-linecap="round" stroke-linejoin="round"><path d="M5.6 14.6 12 8.2l6.4 6.4"></path></symbol>
  <symbol id="tc-moreH" viewBox="0 0 24 24" fill="none" stroke="currentColor" stroke-width="1.7" stroke-linecap="round" stroke-linejoin="round"><path d="M6.1 12h.15"></path><path d="M12 12h.15"></path><path d="M17.9 12h.15"></path></symbol>
  <symbol id="tc-bank" viewBox="0 0 24 24" fill="none" stroke="currentColor" stroke-width="1.7" stroke-linecap="round" stroke-linejoin="round"><path d="M3.4 9.6 12 4.4l8.6 5.2"></path><path d="M5.2 10.4v8.2"></path><path d="M9.8 10.4v8.2"></path><path d="M14.2 10.4v8.2"></path><path d="M18.8 10.4v8.2"></path><path d="M3 20.6h18"></path></symbol>
  <symbol id="tc-inbox" viewBox="0 0 24 24" fill="none" stroke="currentColor" stroke-width="1.7" stroke-linecap="round" stroke-linejoin="round"><path d="M3.6 13.6 6.4 5.4h11.2l2.8 8.2v6.4H3.6z"></path><path d="M3.6 13.6h4.2l1.4 2.6h5.6l1.4-2.6h4.2"></path></symbol>
  <symbol id="tc-userPlus" viewBox="0 0 24 24" fill="none" stroke="currentColor" stroke-width="1.7" stroke-linecap="round" stroke-linejoin="round"><path d="M10.2 12.2a4 4 0 1 0 0-8 4 4 0 0 0 0 8"></path><path d="M3 20.6c0-3.6 3.2-6.1 7.2-6.1 1.1 0 2.2.2 3.1.5"></path><path d="M17.8 14.6v6.2"></path><path d="M14.7 17.7h6.2"></path></symbol>
  <symbol id="tc-userOff" viewBox="0 0 24 24" fill="none" stroke="currentColor" stroke-width="1.7" stroke-linecap="round" stroke-linejoin="round"><path d="M9.4 6.2a4.1 4.1 0 0 1 5.6 5.6"></path><path d="M8.4 9.4a4.1 4.1 0 0 0 4.4 4.4"></path><path d="M4.6 20.6c0-3.4 3-5.8 6.9-6"></path><path d="M19.4 20.6c0-1.5-.6-2.8-1.6-3.8"></path><path d="M3.4 3.4 20.6 20.6"></path></symbol>
  <symbol id="tc-userSearch" viewBox="0 0 24 24" fill="none" stroke="currentColor" stroke-width="1.7" stroke-linecap="round" stroke-linejoin="round"><path d="M9.6 11.8a3.8 3.8 0 1 0 0-7.6 3.8 3.8 0 0 0 0 7.6"></path><path d="M3 20.4c0-3.4 2.9-5.7 6.6-5.7.9 0 1.8.1 2.6.4"></path><path d="M17.2 18.6a3 3 0 1 0 0-6 3 3 0 0 0 0 6"></path><path d="M19.4 18.8 21.6 21"></path></symbol>
  <symbol id="tc-syncProblem" viewBox="0 0 24 24" fill="none" stroke="currentColor" stroke-width="1.7" stroke-linecap="round" stroke-linejoin="round"><path d="M20.2 11.4a8.2 8.2 0 1 0-2.4 6.4"></path><path d="M20.6 4.4v4.4h-4.4"></path><path d="M12 8.2v4.4"></path><path d="M12 15.8v.15"></path></symbol>
  <symbol id="tc-bellOff" viewBox="0 0 24 24" fill="none" stroke="currentColor" stroke-width="1.7" stroke-linecap="round" stroke-linejoin="round"><path d="M8.6 5.4a5.4 5.4 0 0 1 8.8 4.8c0 3.9 1.6 5.4 1.6 5.4h-3.4"></path><path d="M6.7 9.4c0 4.6-1.7 6.2-1.7 6.2h9.6"></path><path d="M10 18.8a2.2 2.2 0 0 0 4 0"></path><path d="M3.4 3.4 20.6 20.6"></path></symbol>
  <symbol id="tc-flag" viewBox="0 0 24 24" fill="none" stroke="currentColor" stroke-width="1.7" stroke-linecap="round" stroke-linejoin="round"><path d="M5.6 21.2V3.4"></path><path d="M5.6 4.6h11.6l-1.9 3.7 1.9 3.7H5.6"></path></symbol>
  <symbol id="tc-bulb" viewBox="0 0 24 24" fill="none" stroke="currentColor" stroke-width="1.7" stroke-linecap="round" stroke-linejoin="round"><path d="M9.2 17.2a5.6 5.6 0 1 1 5.6 0v2H9.2z"></path><path d="M9.4 19.2h5.2"></path><path d="M10.2 21.4h3.6"></path></symbol>
  <symbol id="tc-map" viewBox="0 0 24 24" fill="none" stroke="currentColor" stroke-width="1.7" stroke-linecap="round" stroke-linejoin="round"><path d="M9 4.4 3.4 6.6v13.2L9 17.6l6 2.2 5.6-2.2V4.4L15 6.6z"></path><path d="M9 4.4v13.2"></path><path d="M15 6.6v13.2"></path></symbol>
  <symbol id="tc-badge" viewBox="0 0 24 24" fill="none" stroke="currentColor" stroke-width="1.7" stroke-linecap="round" stroke-linejoin="round"><path d="M12 3.4 19.4 6v6c0 4.5-3.3 7.4-7.4 8.4C7.9 19.4 4.6 16.5 4.6 12V6z"></path><path d="M12 12.4a2.4 2.4 0 1 0 0-4.8 2.4 2.4 0 0 0 0 4.8"></path><path d="M8.4 17.2c.6-1.6 2-2.5 3.6-2.5s3 .9 3.6 2.5"></path></symbol>
  <symbol id="tc-imageBroken" viewBox="0 0 24 24" fill="none" stroke="currentColor" stroke-width="1.7" stroke-linecap="round" stroke-linejoin="round"><path d="M20 11.4V5.4H4v13.2h9"></path><path d="M4 15.2l4.6-4.6 3.4 3.4"></path><path d="M15.4 8.8h.15"></path><path d="M16.4 15.6l5 5"></path><path d="M21.4 15.6l-5 5"></path></symbol>
  <symbol id="tc-category" viewBox="0 0 24 24" fill="none" stroke="currentColor" stroke-width="1.7" stroke-linecap="round" stroke-linejoin="round"><path d="M4 4.4h6.4v6.4H4z"></path><path d="M13.6 4.4H20v6.4h-6.4z"></path><path d="M4 13.6h6.4V20H4z"></path><path d="M16.8 20.2a3.4 3.4 0 1 0 0-6.8 3.4 3.4 0 0 0 0 6.8"></path></symbol>
  <symbol id="tc-listPlus" viewBox="0 0 24 24" fill="none" stroke="currentColor" stroke-width="1.7" stroke-linecap="round" stroke-linejoin="round"><path d="M4 6.4h10.4"></path><path d="M4 12h10.4"></path><path d="M4 17.6h6.2"></path><path d="M17.6 11v7.2"></path><path d="M14 14.6h7.2"></path></symbol>
  <symbol id="tc-crop" viewBox="0 0 24 24" fill="none" stroke="currentColor" stroke-width="1.7" stroke-linecap="round" stroke-linejoin="round"><path d="M6.4 2.6v15h15"></path><path d="M2.6 6.4h15v15"></path></symbol>
  <symbol id="tc-pdf" viewBox="0 0 24 24" fill="none" stroke="currentColor" stroke-width="1.7" stroke-linecap="round" stroke-linejoin="round"><path d="M6.4 3.4h7L17.6 7.6v4.6H6.4z"></path><path d="M13.4 3.4v4.2h4.2"></path><path d="M3.6 13.8h16.8v6.8H3.6z"></path><path d="M6.8 18.8v-3.2h1.4a.95.95 0 0 1 0 1.9H6.8"></path><path d="M11 18.8v-3.2h1.1a1.6 1.6 0 0 1 0 3.2z"></path><path d="M15.6 18.8v-3.2h2.4"></path><path d="M15.6 17.4h1.8"></path></symbol>
  <symbol id="tc-sparkle" viewBox="0 0 24 24" fill="none" stroke="currentColor" stroke-width="1.7" stroke-linecap="round" stroke-linejoin="round"><path d="M12 3.4l1.9 4.8 4.8 1.9-4.8 1.9L12 16.8l-1.9-4.8-4.8-1.9 4.8-1.9z"></path><path d="M18.8 15.6l.7 1.9 1.9.7-1.9.7-.7 1.9-.7-1.9-1.9-.7 1.9-.7z"></path></symbol>
<symbol id="tc-logo" viewBox="0 0 32 32" fill="none">
<rect x="8.5" y="3.5" width="15" height="25" rx="4.2" stroke="currentColor" stroke-width="2.1"></rect>
<path d="M13 24.2h6" stroke="currentColor" stroke-width="2.1" stroke-linecap="round"></path>
<path d="M12.6 13.4a4.9 4.9 0 0 1 6.8 0" stroke="currentColor" stroke-width="2.1" stroke-linecap="round"></path>
<path d="M15.1 16.6a1.9 1.9 0 0 1 1.8 0" stroke="currentColor" stroke-width="2.1" stroke-linecap="round"></path>
</symbol>
</svg>
